<?xml version="1.0" standalone="no"?>
<!DOCTYPE svg PUBLIC "-//W3C//DTD SVG 20010904//EN"
 "http://www.w3.org/TR/2001/REC-SVG-20010904/DTD/svg10.dtd">
<svg version="1.0" xmlns="http://www.w3.org/2000/svg"
 width="900.000000pt" height="900.000000pt" viewBox="0 0 900.000000 900.000000"
 preserveAspectRatio="xMidYMid meet">
<metadata>
Created by potrace 1.11, written by Peter Selinger 2001-2013
</metadata>
<g transform="translate(0.000000,900.000000) scale(0.100000,-0.100000)"
fill="#000000" stroke="none">
<path d="M2285 7690 c-16 -5 -64 -16 -105 -26 -311 -73 -597 -316 -721 -614
-33 -77 -45 -120 -78 -263 -14 -60 -16 -4361 -2 -4416 5 -20 17 -70 27 -111
58 -247 223 -481 444 -629 129 -86 241 -130 438 -170 75 -15 4339 -15 4414 0
196 40 309 84 438 170 220 147 393 393 446 632 8 40 20 88 25 108 5 22 9 903
9 2201 0 2096 -1 2167 -19 2254 -23 108 -43 166 -86 261 -128 278 -408 508
-705 577 -41 10 -91 22 -111 27 -45 11 -4372 10 -4414 -1z m4230 -823 c118
-21 202 -86 237 -185 10 -28 13 -139 13 -467 l0 -430 -28 -57 c-47 -97 -121
-143 -250 -159 -52 -6 -798 -9 -2062 -7 -1879 3 -1983 4 -2033 21 -106 36
-173 123 -191 250 -14 100 -14 675 0 770 22 154 95 233 236 262 96 19 3971 21
4078 2z m-1965 -2057 l5 -145 150 -6 c83 -3 151 -7 153 -7 2 -1 2 -32 0 -69
l-3 -68 -150 -5 -150 -5 -2 -130 c-1 -71 -2 -138 -3 -147 0 -15 -10 -18 -62
-18 -59 0 -91 9 -89 24 1 3 1 67 1 141 l0 134 -147 3 -148 3 -3 68 c-2 41 1
67 8 68 5 1 15 3 20 4 6 1 69 3 140 4 l130 1 0 144 c0 106 3 146 13 150 6 2
39 4 72 3 l60 -2 5 -145z m-1579 94 c57 -19 108 -64 132 -116 33 -71 21 -88
-59 -88 -40 0 -49 5 -84 43 -38 41 -41 42 -102 42 -83 -1 -121 -23 -153 -92
-69 -144 15 -311 153 -306 52 2 87 23 114 69 20 35 21 35 87 32 78 -4 83 -12
51 -82 -85 -179 -338 -212 -484 -63 -51 51 -74 98 -87 179 -12 74 0 165 31
233 26 58 103 134 142 142 15 3 31 10 34 14 9 15 172 10 225 -7z m3527 -972
c2 -38 -2 -69 -9 -78 -16 -19 -708 -21 -727 -2 -16 16 -16 120 0 136 9 9 101
12 373 10 l360 -3 3 -63z m-14 -248 c23 -9 23 -139 0 -148 -28 -11 -694 -7
-715 4 -15 9 -19 22 -19 68 0 32 5 63 12 70 9 9 102 12 359 12 191 0 354 -3
363 -6z m-3744 -524 c53 -55 100 -100 105 -100 4 0 52 45 106 100 55 55 102
100 107 100 14 0 92 -85 92 -101 0 -9 -15 -29 -32 -46 -64 -59 -158 -160 -158
-169 0 -5 43 -52 95 -104 52 -52 95 -100 95 -107 0 -19 -72 -93 -90 -93 -9 0
-60 45 -115 100 l-99 100 -99 -100 c-55 -55 -105 -100 -112 -100 -18 0 -96 81
-93 97 2 7 47 57 101 112 l98 99 -100 101 c-56 56 -101 107 -101 114 0 14 80
97 94 97 6 0 54 -45 106 -100z m2048 -139 c9 -5 12 -28 10 -77 l-3 -69 -312
-3 -311 -2 -4 66 c-1 36 1 72 5 80 7 12 59 14 305 14 163 0 303 -4 310 -9z"/>
<path d="M6005 6681 c-154 -40 -245 -217 -245 -475 0 -248 75 -417 209 -474
48 -20 184 -20 232 0 135 58 210 228 209 480 -1 224 -71 387 -194 450 -43 22
-160 33 -211 19z m145 -136 c58 -30 94 -122 105 -273 8 -99 -8 -252 -32 -315
-44 -115 -151 -151 -228 -77 -56 54 -79 145 -79 314 0 81 6 164 13 196 17 71
54 136 89 154 35 20 95 20 132 1z"/>
</g>
</svg>
